<?xml version="1.0" encoding="iso-8859-1"?>
<!-- Uploaded to: SVG Repo, www.svgrepo.com, Generator: SVG Repo Mixer Tools -->
<svg fill="#000000" height="800px" width="800px" version="1.1" id="Layer_1" xmlns="http://www.w3.org/2000/svg" xmlns:xlink="http://www.w3.org/1999/xlink" 
	 viewBox="0 0 512 512" xml:space="preserve">
<g>
	<g>
		<path d="M495.578,129.196h-23.254c-34.388,0-65.307,18.598-81.578,48.137h-39.344c-0.741,0-1.464-0.011-2.178,0.083
			c-3.121-2.588-5.867-5.725-8.092-9.235l-0.01-0.216c-5.482-11.901-37.485-77.06-82.747-77.06h-12.22v-3.487
			c0-9.063-7.347-16.41-16.41-16.41c-9.063,0-16.41,7.347-16.41,16.41v3.487h-11.872c-45.214,0-77.079,65.396-82.237,76.646
			c-0.298,0.496-0.637,1.012-0.956,1.492c-12.146-13.089-29.478-21.249-48.7-21.249H66.47C29.825,147.794,0,177.687,0,214.333
			v12.592c0,33.64,25.136,61.505,57.605,65.851c0.342,56.319,36.096,104.392,86.074,123.038c-1.609,2.538-2.553,5.539-2.553,8.767
			c0,9.063,7.349,16.41,16.411,16.41H305.23c9.063,0,16.41-7.347,16.41-16.41c0-3.383-1.164-6.526-2.919-9.137
			c49.71-18.997,84.971-67.179,84.971-123.482v-0.922c44.855-2.558,79.398-39.26,79.398-84.024c0-11.595,7.365-22.133,18.214-26.226
			c6.39-2.41,10.695-8.526,10.695-15.354v-19.921C512,136.452,504.641,129.196,495.578,129.196z M201.461,123.726h56.914
			c11.201,0,23.608,12.321,33.939,26.256H167.721C177.977,136.074,190.328,123.726,201.461,123.726z M57.983,243.769v15.6
			c-14.222-3.902-25.162-16.965-25.162-32.443v-12.592c0-18.548,15.103-33.718,33.651-33.718h3.097
			c7.966,0,15.478,2.828,21.247,7.473C70.765,199.087,57.983,220.505,57.983,243.769z M370.872,291.961
			c0,54.764-44.276,99.798-99.039,99.798H189.74c-54.764,0-98.936-45.034-98.936-99.798v-48.193c0-12.656,7.761-24.16,19.596-28.626
			c15.766-5.949,28.907-16.854,37.171-30.706c0.002-0.003-0.045-0.005-0.043-0.009l0.381-0.679c0.195-0.327,0.345-0.676,0.519-1.02
			c0.484,0.043,0.958,0.074,1.452,0.074h161.866c0.307,0.669,0.655,1.319,1.05,1.941l0.616,0.971
			c8.634,13.624,21.49,23.986,36.45,29.176c12.649,4.387,21.01,16.28,21.01,29.593V291.961z M450.27,207.016
			c0,26.658-20.321,48.631-46.578,51.117v-13.648c0-12.514-3.385-24.486-9.835-34.332h7.229c6.692,0,12.714-4.142,15.218-10.347
			c9.03-22.379,30.071-37.08,54.059-37.814C457.907,173.337,450.27,189.611,450.27,207.016z"/>
	</g>
</g>
</svg>