<?xml version="1.0" encoding="iso-8859-1"?>
<!-- Uploaded to: SVG Repo, www.svgrepo.com, Generator: SVG Repo Mixer Tools -->
<svg fill="#000000" height="800px" width="800px" version="1.1" id="Layer_1" xmlns="http://www.w3.org/2000/svg" xmlns:xlink="http://www.w3.org/1999/xlink" 
	 viewBox="0 0 512 512" xml:space="preserve">
<g>
	<g>
		<path d="M360.297,102.914h-81.26V74.829l88.896-35.459c10.468-4.176,15.57-16.048,11.395-26.517S363.283-2.719,352.809,1.458
			L251.067,42.042c-0.044,0.018-0.083,0.039-0.125,0.057c-0.439,0.178-0.864,0.382-1.287,0.59c-0.197,0.097-0.4,0.184-0.593,0.286
			c-0.341,0.182-0.669,0.386-0.999,0.586c-0.257,0.155-0.522,0.302-0.77,0.468c-0.212,0.143-0.411,0.302-0.618,0.452
			c-0.34,0.246-0.684,0.487-1.005,0.752c-0.088,0.072-0.167,0.154-0.254,0.229c-0.418,0.355-0.829,0.717-1.212,1.102
			c-0.019,0.019-0.037,0.042-0.056,0.061c-0.439,0.444-0.86,0.901-1.254,1.38c-0.097,0.117-0.18,0.245-0.275,0.365
			c-0.305,0.386-0.607,0.774-0.882,1.18c-0.265,0.391-0.502,0.801-0.74,1.211c-0.086,0.147-0.184,0.287-0.265,0.437
			c-0.29,0.528-0.551,1.073-0.795,1.629c-0.018,0.041-0.041,0.08-0.058,0.122c-0.21,0.488-0.389,0.992-0.562,1.499
			c-0.041,0.12-0.093,0.235-0.131,0.356c-0.122,0.386-0.218,0.785-0.318,1.182c-0.065,0.259-0.143,0.513-0.199,0.774
			c-0.06,0.283-0.097,0.574-0.144,0.861c-0.067,0.391-0.136,0.78-0.18,1.174c-0.022,0.208-0.027,0.422-0.044,0.631
			c-0.037,0.479-0.069,0.956-0.072,1.439c0,0.045-0.007,0.088-0.007,0.133v41.913H151.7c-19.355,0-35.101,15.747-35.101,35.101
			v338.884C116.6,496.254,132.345,512,151.7,512h208.598c19.355,0,35.102-15.747,35.102-35.101V138.014
			C395.399,118.661,379.652,102.914,360.297,102.914z M157.415,143.73h80.805v83.384l-15.623,2.143
			c-13.999,1.921-28.146,1.609-42.049-0.924l-23.132-4.214V143.73z M354.582,471.183H157.415V265.609l15.816,2.88
			c10.336,1.883,20.774,2.825,31.221,2.825c7.906,0,15.816-0.539,23.69-1.619l66.519-9.123c7.637-1.048,15.419-1.431,23.124-1.144
			l36.798,1.377V471.183z M354.582,219.961l-35.272-1.321c-10.063-0.375-20.222,0.128-30.195,1.495l-10.078,1.382V143.73h75.545
			V219.961z"/>
	</g>
</g>
</svg>